<svg width="186" height="57" viewBox="0 0 186 57" fill="none" xmlns="http://www.w3.org/2000/svg">
<path d="M0.53125 56.1449L8.00994 11.2727H14.3807L11.1847 30.4276C10.9148 32.0469 11.0355 33.4744 11.5469 34.7102C12.0582 35.9318 12.8892 36.8906 14.0398 37.5866C15.1903 38.2827 16.6108 38.6307 18.3011 38.6307C19.9915 38.6307 21.5256 38.2827 22.9034 37.5866C24.2955 36.8906 25.4389 35.9318 26.3338 34.7102C27.2429 33.4744 27.8253 32.0469 28.081 30.4276L31.2983 11.2727H37.669L32.2145 44H25.9503L26.7812 39.206H26.5256C25.4318 40.8111 24.0682 42.0469 22.4347 42.9134C20.8011 43.7798 19.0966 44.2131 17.321 44.2131C15.6023 44.2131 14.0682 43.7798 12.7188 42.9134C11.3835 42.0469 10.446 40.8111 9.90625 39.206H9.65057L6.79545 56.1449H0.53125ZM55.5881 44H41.2699L48.5142 0.363635H62.8963C67.1861 0.363635 70.7301 1.25852 73.5284 3.04829C76.3267 4.82386 78.2869 7.36648 79.4091 10.6761C80.5313 13.9716 80.7088 17.9134 79.9418 22.5014C79.2031 26.9901 77.7543 30.8395 75.5952 34.0497C73.4503 37.2457 70.6875 39.7031 67.3068 41.4219C63.9261 43.1406 60.0199 44 55.5881 44ZM48.8338 38.2472H55.8651C59.1889 38.2472 62.0653 37.6009 64.4943 36.3082C66.9375 35.0156 68.919 33.1406 70.4389 30.6832C71.9588 28.2259 73.0099 25.2358 73.5923 21.7131C74.1605 18.3608 74.1108 15.527 73.4432 13.2116C72.7756 10.8821 71.483 9.12074 69.5653 7.92756C67.6477 6.72017 65.098 6.11648 61.9162 6.11648H54.1392L48.8338 38.2472ZM97.994 44.6605C94.8832 44.6605 92.2837 43.9503 90.1957 42.5298C88.1076 41.0952 86.6374 39.0923 85.7852 36.5213C84.9471 33.9361 84.805 30.9318 85.359 27.5085C85.8988 24.1562 86.9854 21.2301 88.619 18.7301C90.2667 16.2301 92.3263 14.2912 94.7979 12.9134C97.2837 11.5355 100.047 10.8466 103.086 10.8466C106.197 10.8466 108.789 11.5639 110.863 12.9986C112.951 14.4332 114.422 16.4432 115.274 19.0284C116.126 21.6136 116.275 24.625 115.721 28.0625C115.181 31.3864 114.081 34.2983 112.419 36.7983C110.771 39.2841 108.711 41.2159 106.24 42.5938C103.768 43.9716 101.02 44.6605 97.994 44.6605ZM98.3562 39.3125C100.402 39.3125 102.184 38.7727 103.704 37.6932C105.238 36.6136 106.488 35.179 107.454 33.3892C108.42 31.5994 109.081 29.6392 109.436 27.5085C109.762 25.4489 109.755 23.5668 109.414 21.8622C109.088 20.1435 108.377 18.7656 107.284 17.7287C106.19 16.6918 104.67 16.1733 102.724 16.1733C100.679 16.1733 98.8817 16.7202 97.3335 17.8139C95.7994 18.8935 94.5494 20.3352 93.5835 22.1392C92.6317 23.9432 91.9854 25.9105 91.6445 28.0412C91.3178 30.0866 91.3178 31.9688 91.6445 33.6875C91.9712 35.392 92.6815 36.7557 93.7752 37.7784C94.869 38.8011 96.396 39.3125 98.3562 39.3125ZM133.912 44.6605C130.73 44.6605 128.124 43.9432 126.092 42.5085C124.061 41.0597 122.648 39.0639 121.852 36.5213C121.057 33.9787 120.929 31.0668 121.469 27.7855C122.009 24.4616 123.109 21.5284 124.771 18.9858C126.447 16.429 128.543 14.4332 131.057 12.9986C133.585 11.5639 136.391 10.8466 139.473 10.8466C141.959 10.8466 144.097 11.3082 145.886 12.2315C147.676 13.1406 149.033 14.419 149.956 16.0668C150.879 17.7145 151.277 19.6392 151.149 21.8409H144.949C144.849 20.3068 144.281 18.9858 143.244 17.8778C142.207 16.7699 140.68 16.2159 138.663 16.2159C136.888 16.2159 135.254 16.6847 133.763 17.6222C132.271 18.5455 131.014 19.8665 129.991 21.5852C128.969 23.2898 128.273 25.3068 127.903 27.6364C127.506 30.0227 127.527 32.0824 127.967 33.8153C128.408 35.5483 129.217 36.8906 130.396 37.8423C131.575 38.794 133.06 39.2699 134.849 39.2699C136.071 39.2699 137.207 39.0497 138.259 38.6094C139.324 38.1548 140.261 37.5085 141.071 36.6705C141.895 35.8324 142.534 34.8239 142.989 33.6449H149.21C148.599 35.7614 147.577 37.6506 146.142 39.3125C144.722 40.9744 142.974 42.2812 140.901 43.233C138.827 44.1847 136.497 44.6605 133.912 44.6605ZM164.445 11.2727L169.558 24.0142L178.955 11.2727H185.922L172.989 27.6364L180.553 44H173.585L168.259 31.7699L158.862 44H151.874L164.786 27.6364L157.456 11.2727H164.445Z" fill="#2B579A"/>
</svg>
